<svg viewBox="0 0 28 28" fill="none" xmlns="http://www.w3.org/2000/svg">
  <path d="M9.266 16.3266H9.26694C9.26774 16.3266 9.26854 16.3264 9.26934 16.3264H20.4238C20.6984 16.3264 20.9399 16.1442 21.0153 15.8802L23.4763 7.26693C23.5293 7.08124 23.4921 6.88161 23.376 6.72748C23.2597 6.57335 23.0778 6.48267 22.8848 6.48267H7.84709L7.40729 4.5035C7.34465 4.222 7.09503 4.02173 6.80664 4.02173H3.11523C2.77541 4.02173 2.5 4.29714 2.5 4.63696C2.5 4.97678 2.77541 5.2522 3.11523 5.2522H6.31317C6.39104 5.60291 8.41779 14.7234 8.53442 15.2482C7.88058 15.5324 7.42188 16.1843 7.42188 16.9416C7.42188 17.9593 8.24988 18.7874 9.26758 18.7874H20.4238C20.7636 18.7874 21.0391 18.5119 21.0391 18.1721C21.0391 17.8323 20.7636 17.5569 20.4238 17.5569H9.26758C8.9284 17.5569 8.65234 17.2808 8.65234 16.9416C8.65234 16.603 8.92744 16.3274 9.26598 16.3266ZM21.8191 7.71313L19.7097 15.0959H9.51105L7.87042 7.71313H21.8191Z" fill="currentColor"/>
  <path d="M8.65234 19.6328C8.65234 20.6505 9.48035 21.4785 10.498 21.4785C11.5158 21.4785 12.3438 20.6505 12.3438 19.6328C12.3438 18.6151 11.5158 17.7871 10.498 17.7871C9.48035 17.7871 8.65234 18.6151 8.65234 19.6328ZM10.498 19.0176C10.8372 19.0176 11.1133 19.2936 11.1133 19.6328C11.1133 19.972 10.8372 20.248 10.498 20.248C10.1589 20.248 9.88281 19.972 9.88281 19.6328C9.88281 19.2936 10.1589 19.0176 10.498 19.0176Z" fill="currentColor"/>
  <path d="M16.3477 19.6328C16.3477 20.6505 17.1757 21.4785 18.1934 21.4785C19.2111 21.4785 20.0391 20.6505 20.0391 19.6328C20.0391 18.6151 19.2111 17.7871 18.1934 17.7871C17.1757 17.7871 16.3477 18.6151 16.3477 19.6328ZM18.1934 19.0176C18.5325 19.0176 18.8086 19.2936 18.8086 19.6328C18.8086 19.972 18.5325 20.248 18.1934 20.248C17.8542 20.248 17.5781 19.972 17.5781 19.6328C17.5781 19.2936 17.8542 19.0176 18.1934 19.0176Z" fill="currentColor"/>
</svg>
