<svg width="14" height="13" viewBox="0 0 14 13" fill="none" xmlns="http://www.w3.org/2000/svg">
<path d="M12.9539 1.12968H4.92205C4.70123 0.473836 4.0809 0 3.35155 0C2.6222 0 2.00187 0.473836 1.78105 1.12968H0.527344C0.236109 1.12968 0 1.36579 0 1.65702C0 1.94825 0.236109 2.18436 0.527344 2.18436H1.78109C2.0019 2.8402 2.62223 3.31404 3.35159 3.31404C4.08094 3.31404 4.70127 2.8402 4.92209 2.18436H12.9539C13.2452 2.18436 13.4813 1.94825 13.4813 1.65702C13.4813 1.36579 13.2452 1.12968 12.9539 1.12968ZM3.35155 2.25935C3.01943 2.25935 2.74922 1.98914 2.74922 1.65702C2.74922 1.3249 3.01943 1.05469 3.35155 1.05469C3.68367 1.05469 3.95388 1.3249 3.95388 1.65702C3.95388 1.98914 3.68367 2.25935 3.35155 2.25935Z" fill="#A18A68"/>
<path d="M12.9539 5.64847H11.7001C11.4793 4.99263 10.859 4.5188 10.1296 4.5188C9.40032 4.5188 8.77999 4.99263 8.55918 5.64847H0.527344C0.236109 5.64847 0 5.88458 0 6.17582C0 6.46705 0.236109 6.70316 0.527344 6.70316H8.55918C8.77999 7.359 9.40036 7.83284 10.1297 7.83284C10.859 7.83284 11.4794 7.359 11.7002 6.70316H12.9539C13.2452 6.70316 13.4813 6.46705 13.4813 6.17582C13.4813 5.88458 13.2452 5.64847 12.9539 5.64847ZM10.1297 6.77815C9.79755 6.77815 9.52734 6.50794 9.52734 6.17582C9.52734 5.8437 9.79755 5.57349 10.1297 5.57349C10.4618 5.57349 10.732 5.8437 10.732 6.17582C10.732 6.50794 10.4618 6.77815 10.1297 6.77815Z" fill="#A18A68"/>
<path d="M12.9539 10.1673H7.18144C6.96062 9.51143 6.34029 9.0376 5.61094 9.0376C4.88159 9.0376 4.26125 9.51143 4.04044 10.1673H0.527344C0.236109 10.1673 0 10.4034 0 10.6946C0 10.9859 0.236109 11.222 0.527344 11.222H4.04044C4.26125 11.8778 4.88159 12.3516 5.61094 12.3516C6.34029 12.3516 6.96062 11.8778 7.18144 11.222H12.9539C13.2452 11.222 13.4813 10.9859 13.4813 10.6946C13.4813 10.4034 13.2452 10.1673 12.9539 10.1673ZM5.61094 11.297C5.27882 11.297 5.00861 11.0268 5.00861 10.6947C5.00861 10.3625 5.27882 10.0923 5.61094 10.0923C5.94306 10.0923 6.21327 10.3625 6.21327 10.6946C6.21327 11.0267 5.94306 11.297 5.61094 11.297Z" fill="#A18A68"/>
</svg>
