<svg viewBox="0 0 24 24" fill="none" xmlns="http://www.w3.org/2000/svg">
  <path d="M12 5C13.6569 5 15 6.34315 15 8C15 9.65685 13.6569 11 12 11C10.3431 11 9 9.65685 9 8C9 6.34315 10.3431 5 12 5Z" stroke="currentColor" stroke-width="1.2" fill="none"/>
  <path d="M12 14C14.2091 14 14.2091 14 14.2091 14C15.3636 14.0001 16.4189 14.6017 17.1446 15.6514L18.7657 18.1857C18.8991 18.4084 18.886 18.6952 18.7303 18.9051C18.5746 19.115 18.2995 19.2135 18.0023 19.1429H5.99772C5.70046 19.2135 5.42538 19.115 5.2697 18.9051C5.11402 18.6952 5.10087 18.4084 5.23432 18.1857L6.85538 15.6514C7.58106 14.6017 8.63636 14.0001 9.79086 14C9.79086 14 9.79086 14 12 14Z" stroke="currentColor" stroke-width="1.2" fill="none"/>
</svg>
