<svg class="arrow-icon arrow-icon--left" viewBox="0 0 5 8" fill="none" xmlns="http://www.w3.org/2000/svg">
  <path d="M4.94085 0.768491C4.97871 0.730943 5 0.679832 5 0.626512C5 0.573193 4.97871 0.522081 4.94085 0.484534L4.51691 0.0605983C4.48063 0.0219332 4.42996 0 4.37693 0C4.32391 0 4.27324 0.0219332 4.23696 0.0605983L0.561511 3.73604C0.505246 3.79224 0.473598 3.86848 0.47353 3.94801V4.05199C0.473598 4.13152 0.505246 4.20776 0.561511 4.26396L4.23696 7.9394C4.27324 7.97807 4.32391 8 4.37693 8C4.42996 8 4.48063 7.97807 4.51691 7.9394L4.94085 7.51547C4.97871 7.47792 5 7.42681 5 7.37349C5 7.32017 4.97871 7.26906 4.94085 7.23151L1.70934 4L4.94085 0.768491Z" fill="currentColor"/>
</svg>
